<svg xmlns="http://www.w3.org/2000/svg" viewBox="0 0 512 512" fill="none">
  <g stroke="#8a5a2a" stroke-linecap="round" stroke-linejoin="round">
    <path d="M211 118c22-29 71-42 113-24 19 8 35 23 43 42" stroke-width="10"/>

    <path d="M214 106c-16-4-29-17-34-33" stroke-width="6"/>
    <path d="M241 92c-8-15-9-31-2-46" stroke-width="6"/>
    <path d="M274 89c2-16 11-29 24-39" stroke-width="6"/>
    <path d="M307 96c10-12 24-19 39-21" stroke-width="6"/>

    <path d="M166 188c-20 8-35 28-35 50 0 24 18 43 41 44" stroke-width="10"/>
    <path d="M171 188c-11 4-20 14-20 26 0 13 10 23 23 23" stroke-width="6"/>

    <path d="M343 190c19 9 33 28 33 50 0 25-19 45-43 45" stroke-width="10"/>
    <path d="M340 191c10 5 18 15 18 27 0 13-10 24-23 24" stroke-width="6"/>

    <path d="M247 184c-28 20-44 53-44 87 0 51 35 93 84 102" stroke-width="11"/>
    <path d="M304 176c23 17 37 45 37 75 0 45-30 82-73 92" stroke-width="11"/>

    <path d="M263 205c15 47 4 105-31 153" stroke-width="7"/>
    <path d="M292 206c-6 56 15 113 59 164" stroke-width="7"/>

    <path d="M121 300c-25 12-42 37-42 66 0 41 33 74 74 74 21 0 39-8 53-22" stroke-width="12"/>
    <path d="M387 298c29 10 50 38 50 71 0 43-35 78-78 78-18 0-35-6-48-16" stroke-width="12"/>

    <path d="M88 396c44 47 106 74 171 74" stroke-width="13"/>
    <path d="M431 394c-49 52-116 79-189 79" stroke-width="13"/>

    <path d="M260 468c14 18 34 31 56 37" stroke-width="6"/>

    <path d="M242 146c8-4 17-4 24 0" stroke-width="5"/>
    <path d="M291 147c7-4 16-5 24-2" stroke-width="5"/>
    <circle cx="255" cy="158" r="3.8" fill="#8a5a2a" stroke-width="0"/>
    <circle cx="304" cy="158" r="3.8" fill="#8a5a2a" stroke-width="0"/>

    <path d="M374 246c11-2 23 1 31 9" stroke-width="6"/>
    <path d="M390 236c3-10 11-18 21-22" stroke-width="6"/>
    <path d="M410 246c9-1 18 1 25 6" stroke-width="5"/>
  </g>
</svg>
