<svg xmlns="http://www.w3.org/2000/svg" viewBox="0 0 320 320" fill="none">
  <g stroke="#7a4a1f" stroke-linecap="round" stroke-linejoin="round">
    <path d="M112 84c17-25 55-35 85-20 18 9 31 27 34 47" stroke-width="8"/>
    <path d="M141 73c10-11 29-13 41-4 7 5 11 13 10 22" stroke-width="5"/>

    <path d="M111 121c-30 12-49 41-49 74 0 46 35 82 80 82" stroke-width="7"/>
    <path d="M214 118c28 14 45 42 43 73-3 43-36 76-79 81" stroke-width="7"/>

    <path d="M156 133c7 36-4 72-31 102" stroke-width="6"/>
    <path d="M182 138c-4 43 12 82 43 113" stroke-width="6"/>

    <path d="M69 171c-15 8-24 23-24 39 0 25 20 45 45 45 13 0 24-5 33-13" stroke-width="8"/>
    <path d="M254 166c16 8 27 25 27 44 0 28-22 50-49 50-11 0-22-4-30-11" stroke-width="8"/>

    <path d="M57 230c26 28 62 44 101 45" stroke-width="9"/>
    <path d="M272 226c-30 33-71 50-116 51" stroke-width="9"/>

    <path d="M157 275c9 14 22 24 37 30" stroke-width="5"/>
    <path d="M157 305c-5 8-5 14-1 20" stroke-width="4"/>

    <path d="M198 95c8-3 16-3 24 1" stroke-width="4"/>
    <path d="M134 101c7-4 15-5 23-2" stroke-width="4"/>
    <circle cx="145" cy="110" r="3" fill="#7a4a1f" stroke-width="0"/>
    <circle cx="194" cy="109" r="3" fill="#7a4a1f" stroke-width="0"/>

    <path d="M101 96c-12-3-21-12-25-23" stroke-width="5"/>
    <path d="M218 92c15-3 28-14 33-28" stroke-width="5"/>

    <path d="M145 50l12 8M160 42l12 9M176 38l11 9M192 42l10 8" stroke-width="5"/>
    <path d="M236 182c7-1 14 1 20 5" stroke-width="4"/>
    <path d="M246 174c2-6 8-10 14-12" stroke-width="4"/>
  </g>
</svg>
